# xmcd
#
# Track frame offsets:
#	150
#	10668
#	22941
#	35061
#	47307
#	59592
#	77219
#	90683
#	103516
#	116974
#	129200
#	141404
#	154130
#	165731
#	180040
#	191933
#	205509
#	215780
#	229250
#	242608
#	256656
#	269803
#	283097
#	297744
#	310922
#	322693
#
# Disc length: 4456 seconds
#
# Revision: 1
# Processed by: cddbd v1.5.2PL0 Copyright (c) Steve Scherf et al.
# Submitted via: audiograbber 1.83.01
#
DISCID=7711661a
DTITLE=Howlin' Wolf - The Complete RPM and Chess Singles As and Bs 1951-62 CD1
DYEAR=2014
DGENRE=Blues
TTITLE0=Moanin' At Midnight
TTITLE1=How Many More Years
TTITLE2=Riding In The Moonlight
TTITLE3=Morning At Midnight
TTITLE4=Passing By Blues
TTITLE5=Crying At Daybreak
TTITLE6=My Baby Stole Off
TTITLE7=I Want Your Picture
TTITLE8=Wolf Is At Your Door
TTITLE9=Holwin' Wolf Boogie
TTITLE10=Getting Old And Grey
TTITLE11=Mr. Highway Man
TTITLE12=Saddle My Pony
TTITLE13=Worried All The Time
TTITLE14=Oh, Red!
TTITLE15=My Last Affair
TTITLE16=All Night Boogie
TTITLE17=I Love My Baby
TTITLE18=No Place To Go
TTITLE19=Rockin' Daddy
TTITLE20=Baby How Long
TTITLE21=Evil Is Going On
TTITLE22=I'll Be Around
TTITLE23=Forty-Four
TTITLE24=Who Will Be The Next
TTITLE25=I Have A Little Girl
EXTD=
EXTT0=
EXTT1=
EXTT2=
EXTT3=
EXTT4=
EXTT5=
EXTT6=
EXTT7=
EXTT8=
EXTT9=
EXTT10=
EXTT11=
EXTT12=
EXTT13=
EXTT14=
EXTT15=
EXTT16=
EXTT17=
EXTT18=
EXTT19=
EXTT20=
EXTT21=
EXTT22=
EXTT23=
EXTT24=
EXTT25=
PLAYORDER=
